<svg width="326" height="40" viewBox="0 0 326 40" fill="none" xmlns="http://www.w3.org/2000/svg">
<path d="M76.0945 14.7677H48.5988L47.6167 15.5502V39.9022H55.178V30.709L55.8653 30.0245H76.0942C81.2004 30.0245 83.5573 28.6555 83.5573 25.1348V19.5601C83.5575 16.1369 81.2006 14.7677 76.0945 14.7677ZM76.0945 23.7652C76.0945 25.4277 75.0142 25.7211 72.5592 25.7211H55.9637L55.178 25.0366V19.8533L55.8653 19.1687H72.559C74.9159 19.1687 76.0941 19.4621 76.0941 21.1246L76.0945 23.7652ZM97.5017 19.3642L104.081 28.9485L103.688 29.8288H89.1548L85.4232 34.4254H107.027L108.598 35.3055L111.937 39.9021H120.676L101.528 14.4743L97.5017 19.3642ZM184.211 35.0121V28.1663L184.996 27.4816H199.628V23.1784H176.453V39.9021H210.626V35.5989H185.095L184.211 35.0121ZM176.453 14.7677H210.921V19.4621H176.453V14.7677ZM138.058 19.2665H165.848C165.455 15.7457 163.196 14.7677 157.697 14.7677H137.763C131.478 14.7677 129.514 15.9414 129.514 20.7334V34.0341C129.514 38.7286 131.478 40 137.763 40H157.697C163.295 40 165.455 38.9241 165.651 35.3055H138.058L137.272 34.523V19.8533L138.058 19.2665ZM28.9591 24.5477H8.82852L8.2393 23.8632V19.56L8.82852 19.0711H36.0294L36.4222 18.1908C35.5384 15.8435 33.0834 14.6701 28.6645 14.6701H9.71223C3.42761 14.6701 1.46361 15.8436 1.46361 20.6356V23.4719C1.46361 28.1664 3.42761 29.4378 9.71223 29.4378H29.843L30.4321 30.0244V34.5231L29.9411 35.2078H0.874389C0.874389 35.2078 0.187134 35.5989 0.187134 35.6968C0.678067 39.022 2.93668 39.9021 8.33746 39.9021H28.9593C35.2439 39.9021 37.3062 38.7286 37.3062 33.9364V30.5133C37.306 25.8191 35.2439 24.5477 28.9591 24.5477ZM232.622 14.67H221.231L220.642 15.8435L233.212 25.0367C235.568 23.6674 238.22 22.2984 240.969 20.9291L232.622 14.67ZM242.835 31.8827L253.932 39.9021H265.323L265.814 38.8262L249.316 26.797C247.156 28.4594 244.897 30.1222 242.835 31.8827Z" fill="white"/>
<path d="M230.953 39.9021H220.642L219.758 38.5328C226.731 31.7848 257.958 3.03178 325.813 0C325.813 0 268.956 1.95587 230.953 39.9021Z" fill="white"/>
</svg>
